<?xml version="1.0" encoding="UTF-8"?> <svg xmlns="http://www.w3.org/2000/svg" width="1021" height="425" viewBox="30 327.5 1021 424.1" fill="none"><path fill-rule="evenodd" clip-rule="evenodd" d="M781.613 738.242C781.948 735.832 781.948 731.215 781.948 725.842V701.934L773.536 702.213C770.263 702.279 768.858 702.624 768.056 703.862C767.457 704.76 767.188 705.45 767.056 705.932C766.99 706.343 766.788 706.622 766.453 706.622C766.052 706.622 765.92 706.343 765.92 705.658C765.92 704.76 766.99 699.453 767.122 698.971C767.32 698.215 767.457 697.87 767.792 697.87C767.974 697.87 768.165 697.954 768.417 698.064C768.814 698.237 769.363 698.476 770.263 698.56C771.861 698.768 774.003 698.834 775.87 698.834H798.245C800.046 698.834 801.315 698.697 802.116 698.56C802.548 698.492 802.881 698.424 803.131 698.372C803.383 698.321 803.552 698.286 803.654 698.286C804.055 698.286 804.121 698.631 804.121 699.524C804.121 700.072 804.092 701.254 804.061 702.511C804.026 703.941 803.989 705.47 803.989 706.277C803.918 706.825 803.786 707.17 803.451 707.17C802.984 707.17 802.852 706.896 802.852 705.998L802.786 705.379C802.649 703.862 801.117 702.213 796.104 702.142L788.96 701.934V725.842C788.96 731.215 788.96 735.832 789.295 738.313C789.427 739.967 789.762 741.205 791.497 741.479C791.586 741.488 791.682 741.498 791.785 741.508C792.533 741.582 793.606 741.687 794.369 741.687C794.973 741.687 795.236 741.896 795.236 742.169C795.236 742.586 794.836 742.723 794.171 742.723C791.911 742.723 789.724 742.673 787.993 742.633C786.859 742.607 785.921 742.586 785.287 742.586C784.744 742.586 783.785 742.611 782.688 742.639C781.221 742.678 779.506 742.723 778.209 742.723C777.473 742.723 777.072 742.586 777.072 742.169C777.072 741.896 777.275 741.687 777.94 741.687C778.622 741.687 779.183 741.603 779.65 741.532C779.777 741.513 779.896 741.495 780.01 741.479C781.146 741.205 781.481 739.967 781.613 738.242ZM813.938 738.242C814.202 735.832 814.202 731.215 814.202 725.842V715.578C814.202 706.759 814.202 705.105 814.07 703.243C814.004 701.244 813.538 700.351 811.665 699.94C811.199 699.798 810.265 699.732 809.463 699.732C808.859 699.732 808.53 699.595 808.53 699.179C808.53 698.834 808.859 698.697 809.732 698.697C810.515 698.697 811.333 698.716 812.134 698.734C812.901 698.751 813.652 698.768 814.339 698.768C815.806 698.834 817.074 698.834 817.876 698.834H831.971C833.036 698.697 833.97 698.56 834.442 698.423C834.573 698.423 834.722 698.372 834.871 698.32C835.022 698.268 835.174 698.215 835.309 698.215C835.639 698.215 835.639 698.423 835.639 698.768C835.639 698.899 835.612 699.057 835.572 699.299C835.485 699.819 835.333 700.722 835.243 702.553C835.216 702.764 835.18 703.265 835.139 703.843C835.072 704.78 834.99 705.919 834.908 706.343C834.908 706.688 834.771 707.033 834.371 707.033C833.97 707.033 833.838 706.759 833.838 706.206C833.838 705.795 833.772 704.831 833.503 704.141C833.102 703.04 832.569 702.35 829.764 702.005C828.764 701.868 822.818 701.797 821.686 701.797C821.417 701.797 821.351 701.934 821.351 702.35V717.095C821.351 717.506 821.351 717.714 821.686 717.714C822.955 717.714 829.429 717.714 830.768 717.643C832.103 717.506 832.97 717.369 833.437 716.75C833.838 716.268 834.107 715.989 834.371 715.989C834.574 715.989 834.771 716.126 834.771 716.471C834.771 716.577 834.746 716.736 834.706 716.993C834.615 717.571 834.445 718.647 834.305 720.743C834.239 721.844 834.107 724.188 834.107 724.604C834.107 725.086 834.107 725.705 833.569 725.705C833.168 725.705 833.036 725.497 833.036 725.223C833.036 724.604 833.036 723.843 832.838 723.087C832.569 721.915 831.768 721.088 829.698 720.814C828.627 720.743 823.021 720.677 821.686 720.677C821.351 720.677 821.351 720.88 821.351 721.225V725.842C821.351 726.423 821.346 727.289 821.339 728.266C821.324 730.65 821.304 733.695 821.351 734.868C821.417 738.861 822.351 739.759 828.094 739.759C829.566 739.759 831.971 739.759 833.437 739.069C834.908 738.379 835.573 737.141 835.974 734.731C836.04 734.107 836.177 733.904 836.578 733.904C837.044 733.904 837.044 734.315 837.044 734.934C837.044 736.243 836.578 740.241 836.309 741.413C835.908 742.925 835.375 742.925 833.239 742.925C829.948 742.925 827.313 742.842 825.171 742.774C824.573 742.755 824.013 742.737 823.487 742.723C822.965 742.708 822.475 742.693 822.012 742.679C820.285 742.627 818.928 742.586 817.612 742.586C816.942 742.586 815.74 742.586 814.405 742.652C813.711 742.652 812.98 742.671 812.279 742.689C811.631 742.706 811.008 742.723 810.463 742.723C809.732 742.723 809.331 742.586 809.331 742.169C809.331 741.896 809.595 741.687 810.265 741.687C810.958 741.687 811.601 741.585 812.064 741.512C812.137 741.5 812.206 741.489 812.269 741.479C813.401 741.205 813.669 739.967 813.938 738.242ZM861.018 743.55C860.283 743.55 859.953 742.723 858.882 740.033L844.655 704.415C843.387 701.178 842.387 700.559 840.383 699.94C839.515 699.732 838.648 699.732 838.181 699.732C837.643 699.732 837.511 699.595 837.511 699.179C837.511 698.768 838.11 698.697 838.983 698.697C840.649 698.697 842.378 698.739 843.918 698.777C845.153 698.807 846.266 698.834 847.126 698.834C847.744 698.834 848.573 698.81 849.535 698.782C850.864 698.743 852.445 698.697 854.072 698.697C854.808 698.697 855.412 698.834 855.412 699.179C855.412 699.595 855.077 699.732 854.539 699.732C853.671 699.732 852.804 699.798 852.337 700.143C851.936 700.422 851.804 700.833 851.804 701.386C851.804 702.142 852.271 703.725 853.073 705.861L862.824 732.316H863.022C864.253 729.04 866.777 722.516 869.137 716.418C871.389 710.597 873.491 705.165 874.175 703.314C874.443 702.553 874.641 701.66 874.641 701.107C874.641 700.696 874.443 700.214 873.906 700.006C873.241 699.798 872.373 699.732 871.638 699.732C871.171 699.732 870.704 699.661 870.704 699.25C870.704 698.834 871.237 698.697 872.307 698.697C874.159 698.697 875.838 698.757 876.976 698.798C877.559 698.818 878 698.834 878.249 698.834C878.648 698.834 879.366 698.809 880.188 698.78C881.287 698.742 882.571 698.697 883.526 698.697C884.261 698.697 884.728 698.834 884.728 699.179C884.728 699.595 884.393 699.732 883.794 699.732C883.257 699.732 882.054 699.732 881.055 700.422C880.319 700.97 879.451 701.934 877.914 705.658C876.438 709.351 875.291 711.99 873.771 715.487C873.022 717.209 872.184 719.138 871.171 721.504C869.402 725.658 867.859 729.298 866.596 732.28C865.282 735.38 864.27 737.767 863.621 739.277C863.528 739.492 863.439 739.697 863.354 739.892C862.11 742.762 861.769 743.55 861.018 743.55ZM890.137 738.516C890.472 736.106 890.472 731.489 890.472 725.842V715.578C890.472 706.759 890.472 705.105 890.335 703.243C890.203 701.244 889.67 700.28 888.402 699.94C887.798 699.798 887.062 699.732 886.397 699.732C885.794 699.732 885.464 699.595 885.464 699.179C885.464 698.834 885.931 698.697 886.798 698.697C887.986 698.697 889.565 698.737 891.018 698.774C892.258 698.805 893.407 698.834 894.145 698.834C894.804 698.834 895.826 698.807 896.953 698.776C898.336 698.739 899.875 698.697 901.091 698.697C901.822 698.697 902.223 698.834 902.223 699.179C902.223 699.595 901.888 699.732 901.355 699.732C900.756 699.732 900.355 699.798 899.62 699.94C898.148 700.214 897.682 701.178 897.55 703.243C897.418 705.105 897.418 706.759 897.418 715.578V725.842C897.418 731.489 897.418 736.106 897.682 738.587C897.819 740.17 898.219 741.205 899.955 741.479C900.121 741.494 900.306 741.512 900.5 741.531C901.242 741.602 902.139 741.687 902.826 741.687C903.425 741.687 903.694 741.896 903.694 742.169C903.694 742.586 903.293 742.723 902.623 742.723C900.345 742.723 898.142 742.672 896.42 742.632C895.317 742.606 894.411 742.586 893.81 742.586C893.268 742.586 892.309 742.611 891.211 742.639C889.744 742.678 888.03 742.723 886.732 742.723C885.997 742.723 885.596 742.586 885.596 742.169C885.596 741.896 885.794 741.687 886.463 741.687C887.146 741.687 887.706 741.603 888.174 741.532C888.3 741.513 888.42 741.495 888.533 741.479C889.67 741.205 890.005 740.241 890.137 738.516ZM915.379 738.242C915.648 735.832 915.648 731.215 915.648 725.842V715.578C915.648 706.759 915.648 705.105 915.582 703.243C915.445 701.244 914.978 700.351 913.111 699.94C912.644 699.798 911.706 699.732 910.904 699.732C910.305 699.732 909.97 699.595 909.97 699.179C909.97 698.834 910.371 698.697 911.173 698.697C912.908 698.697 914.824 698.743 916.441 698.782C917.622 698.81 918.644 698.834 919.321 698.834C920.048 698.834 921.104 698.81 922.33 698.782C924.032 698.743 926.063 698.697 928.003 698.697C935.081 698.697 944.497 698.697 950.708 705.313C953.514 708.342 956.182 713.168 956.182 720.124C956.182 727.496 953.179 733.077 949.972 736.38C947.435 739.14 941.56 743.271 931.072 743.271C929.486 743.271 927.685 743.143 925.941 743.019C925.488 742.987 925.039 742.955 924.598 742.925C922.457 742.723 920.458 742.586 919.052 742.586C918.454 742.586 917.185 742.586 915.846 742.652C915.152 742.652 914.422 742.671 913.722 742.689C913.075 742.706 912.454 742.723 911.908 742.723C911.173 742.723 910.772 742.586 910.772 742.169C910.772 741.896 911.041 741.687 911.706 741.687C912.432 741.687 913.021 741.591 913.467 741.518C913.553 741.504 913.634 741.491 913.71 741.479C914.846 741.205 915.181 739.967 915.379 738.242ZM922.792 702.969C922.726 704.968 922.726 710.068 922.726 714.68V721.986C922.726 728.186 922.792 732.661 922.858 733.762C922.858 735.213 922.995 737.552 923.462 738.176C924.197 739.277 926.399 740.515 930.874 740.515C936.618 740.515 940.423 739.343 943.828 736.314C947.435 733.143 948.572 727.841 948.572 721.844C948.572 714.406 945.568 709.651 943.163 707.241C937.952 702.142 931.544 701.452 927.135 701.452C925.998 701.452 923.928 701.589 923.462 701.868C922.929 702.071 922.792 702.35 922.792 702.969ZM967.335 738.242C967.67 735.832 967.67 731.215 967.67 725.842V715.578C967.67 706.759 967.67 705.105 967.538 703.243C967.406 701.244 967.005 700.351 965.133 699.94C964.666 699.798 963.666 699.732 962.931 699.732C962.261 699.732 961.926 699.595 961.926 699.179C961.926 698.834 962.327 698.697 963.194 698.697C963.981 698.697 964.785 698.716 965.57 698.734C966.319 698.751 967.052 698.768 967.736 698.768C969.207 698.834 970.541 698.834 971.343 698.834H985.433C986.504 698.697 987.437 698.56 987.838 698.423C988.015 698.423 988.191 698.365 988.358 698.311C988.508 698.262 988.65 698.215 988.777 698.215C989.04 698.215 989.106 698.423 989.106 698.768C989.106 698.908 989.076 699.08 989.027 699.353C988.934 699.88 988.773 700.783 988.64 702.553C988.614 702.766 988.589 703.276 988.56 703.862C988.513 704.796 988.457 705.922 988.376 706.343C988.31 706.688 988.239 707.033 987.838 707.033C987.437 707.033 987.305 706.759 987.305 706.206C987.305 705.795 987.239 704.831 986.97 704.141C986.57 703.04 986.037 702.35 983.165 702.005C982.231 701.868 976.285 701.797 975.148 701.797C974.885 701.797 974.753 701.934 974.753 702.35V717.095C974.753 717.506 974.819 717.714 975.148 717.714C976.422 717.714 982.896 717.714 984.164 717.643C985.57 717.506 986.372 717.369 986.904 716.75C986.94 716.707 986.973 716.666 987.006 716.627C987.341 716.221 987.533 715.989 987.838 715.989C988.041 715.989 988.239 716.126 988.239 716.471C988.239 716.577 988.214 716.736 988.173 716.993C988.082 717.571 987.912 718.647 987.772 720.743C987.744 721.217 987.69 721.921 987.638 722.603C987.569 723.505 987.503 724.367 987.503 724.604C987.503 725.086 987.503 725.705 987.036 725.705C986.635 725.705 986.504 725.497 986.504 725.223C986.48 724.999 986.464 724.757 986.448 724.503C986.42 724.054 986.39 723.57 986.306 723.087C986.037 721.915 985.235 721.088 983.099 720.814C982.028 720.743 976.488 720.677 975.082 720.677C974.819 720.677 974.753 720.88 974.753 721.225V725.842C974.753 726.423 974.747 727.289 974.74 728.266C974.723 730.65 974.702 733.695 974.753 734.868C974.885 738.861 975.752 739.759 981.562 739.759C983.033 739.759 985.367 739.759 986.838 739.069C988.31 738.379 988.974 737.141 989.375 734.731C989.507 734.107 989.644 733.904 990.045 733.904C990.446 733.904 990.446 734.315 990.446 734.934C990.446 736.243 990.045 740.241 989.71 741.413C989.309 742.925 988.843 742.925 986.706 742.925C983.411 742.925 980.832 742.844 978.692 742.777C978.054 742.757 977.456 742.738 976.889 742.723C976.431 742.709 975.998 742.696 975.584 742.683C973.823 742.629 972.417 742.586 971.008 742.586C970.409 742.586 969.141 742.586 967.807 742.652C967.155 742.652 966.45 742.67 965.764 742.688C965.115 742.706 964.483 742.723 963.93 742.723C963.194 742.723 962.794 742.586 962.794 742.169C962.794 741.896 962.997 741.687 963.666 741.687C964.345 741.687 964.899 741.604 965.365 741.533C965.496 741.514 965.619 741.495 965.736 741.479C966.868 741.205 967.137 739.967 967.335 738.242ZM1043 719.642C1043 733.006 1033.98 743.55 1019.63 743.55C1003.4 743.55 996.854 731.007 996.854 720.743C996.854 710.753 1003.27 697.87 1020.23 697.87C1034.25 697.87 1043 706.343 1043 719.642ZM1004.67 718.886C1004.67 731.007 1011.15 740.652 1022.03 740.652C1025.97 740.652 1035.12 738.658 1035.12 721.844C1035.12 708.758 1027.84 700.696 1018.56 700.696C1012.08 700.696 1004.67 704.415 1004.67 718.886ZM48.7387 739.552C45.8669 736.863 43.7309 732.525 43.7309 724.117V715.573C43.7309 706.755 43.7308 705.101 43.5989 703.244C43.4619 701.245 42.9951 700.347 41.1939 699.936C40.7272 699.799 39.7225 699.728 38.9868 699.728C38.3222 699.728 37.9873 699.591 37.9873 699.18C37.9873 698.835 38.3881 698.698 39.2558 698.698C40.9766 698.698 42.874 698.743 44.4947 698.781C45.7029 698.81 46.7573 698.835 47.4702 698.835C48.1108 698.835 49.194 698.806 50.373 698.775C51.7809 698.738 53.3255 698.698 54.4163 698.698C55.2839 698.698 55.6847 698.835 55.6847 699.18C55.6847 699.591 55.3499 699.728 54.7512 699.728C54.1641 699.728 53.8361 699.795 53.2028 699.924L53.1478 699.936C51.6105 700.21 51.1437 701.174 51.0777 703.244C50.9458 705.101 50.9458 706.755 50.9458 715.573V723.772C50.9458 732.18 52.544 735.762 55.3499 738.101C57.8868 740.237 60.4947 740.445 62.4278 740.445C64.8988 740.445 67.9075 739.618 70.1755 737.345C73.3162 734.108 73.4481 728.872 73.4481 722.879V715.573C73.4481 706.755 73.4481 705.101 73.3822 703.244C73.2502 701.245 72.7834 700.347 70.9112 699.936C70.5104 699.799 69.5108 699.728 68.9071 699.728C68.3084 699.728 67.9075 699.591 67.9075 699.18C67.9075 698.835 68.3084 698.698 69.11 698.698C71.9818 698.698 75.5842 698.835 75.5842 698.835C75.8537 698.835 76.4996 698.816 77.3183 698.793C78.7346 698.753 80.668 698.698 82.0634 698.698C82.8651 698.698 83.2659 698.835 83.2659 699.18C83.2659 699.591 82.9311 699.728 82.2004 699.728C81.6062 699.728 81.2724 699.796 80.6284 699.929L80.5971 699.936C79.0597 700.21 78.593 701.174 78.527 703.244C78.39 705.101 78.39 706.755 78.39 715.573V721.844C78.39 728.318 77.7913 735.143 73.0473 739.344C69.0441 742.926 64.9698 743.545 61.2964 743.545C58.2876 743.545 52.8789 743.408 48.7387 739.552ZM96.6912 710.545H96.4883L97.092 734.798C97.224 739.344 97.9597 740.861 99.0962 741.272C100.03 741.617 101.166 741.683 102.034 741.683C102.633 741.683 102.968 741.825 102.968 742.17C102.968 742.652 102.501 742.718 101.699 742.718C99.3115 742.718 97.5155 742.66 96.2581 742.62C95.581 742.598 95.06 742.581 94.6871 742.581C94.5279 742.581 94.1837 742.593 93.7009 742.61C92.5671 742.651 90.669 742.718 88.6086 742.718C87.8729 742.718 87.3402 742.652 87.3402 742.17C87.3402 741.825 87.6751 741.683 88.2738 741.683C89.0095 741.683 90.009 741.617 90.8107 741.409C92.2821 740.927 92.48 739.273 92.551 734.174L93.0178 699.865C93.0178 698.698 93.2157 697.871 93.7535 697.871C94.2552 697.871 94.6442 698.301 95.237 698.958C95.4294 699.171 95.6433 699.408 95.8895 699.662C96.5542 700.418 105.17 709.789 113.384 718.191C115.296 720.198 118.166 723.297 120.677 726.009C123.168 728.7 125.307 731.009 125.805 731.49H126.074L125.541 705.309C125.475 701.798 124.937 700.692 123.603 700.073C122.735 699.728 121.401 699.728 120.599 699.728C119.929 699.728 119.731 699.591 119.731 699.18C119.731 698.764 120.33 698.698 121.198 698.698C122.941 698.698 124.636 698.748 125.968 698.788C126.83 698.813 127.539 698.835 128.012 698.835C128.201 698.835 128.544 698.821 129.012 698.802C130.027 698.762 131.633 698.698 133.552 698.698C134.288 698.698 134.821 698.764 134.821 699.18C134.821 699.591 134.491 699.728 133.821 699.728C133.289 699.728 132.822 699.728 132.152 699.936C130.549 700.347 130.082 701.59 130.016 704.898L129.412 741.617C129.412 742.926 129.214 743.408 128.676 743.408C128.078 743.408 127.408 742.789 126.743 742.17C124.844 740.284 121.888 737.209 118.649 733.839C115.849 730.927 112.837 727.793 110.111 725.015C104.805 719.6 99.4009 713.568 97.3813 711.313C97.0622 710.957 96.8276 710.695 96.6912 710.545ZM146.846 738.517C147.11 736.107 147.11 731.49 147.11 725.837V715.573C147.11 706.755 147.11 705.101 146.978 703.244C146.912 701.245 146.308 700.281 145.105 699.936C144.441 699.799 143.705 699.728 143.035 699.728C142.503 699.728 142.168 699.591 142.168 699.18C142.168 698.835 142.569 698.698 143.502 698.698C144.639 698.698 146.17 698.736 147.605 698.773C148.873 698.805 150.066 698.835 150.849 698.835C151.478 698.835 152.496 698.807 153.619 698.777C155.004 698.739 156.55 698.698 157.729 698.698C158.465 698.698 158.932 698.835 158.932 699.18C158.932 699.591 158.597 699.728 157.998 699.728C157.46 699.728 156.993 699.799 156.329 699.936C154.791 700.21 154.325 701.174 154.259 703.244C154.122 705.101 154.122 706.755 154.122 715.573V725.837C154.122 731.49 154.122 736.107 154.325 738.583C154.522 740.171 154.923 741.201 156.593 741.48C156.779 741.495 156.991 741.514 157.217 741.535C157.959 741.602 158.849 741.683 159.464 741.683C160.134 741.683 160.403 741.891 160.403 742.17C160.403 742.581 159.931 742.718 159.332 742.718C157.052 742.718 154.846 742.667 153.124 742.627C152.021 742.602 151.117 742.581 150.519 742.581C149.937 742.581 148.941 742.607 147.814 742.636C146.346 742.674 144.656 742.718 143.37 742.718C142.635 742.718 142.234 742.581 142.234 742.17C142.234 741.891 142.503 741.683 143.172 741.683C143.871 741.683 144.438 741.594 144.879 741.525C144.985 741.508 145.085 741.493 145.176 741.48C146.308 741.201 146.643 740.237 146.846 738.517ZM183.509 743.545C182.773 743.545 182.438 742.718 181.368 740.034L167.146 704.416C165.812 701.174 164.873 700.555 162.874 699.936C162.001 699.728 161.068 699.728 160.667 699.728C160.134 699.728 159.931 699.591 159.931 699.18C159.931 698.764 160.601 698.698 161.402 698.698C163.056 698.698 164.77 698.739 166.312 698.776C167.572 698.807 168.716 698.835 169.617 698.835C170.197 698.835 171.006 698.811 171.955 698.784C173.297 698.745 174.919 698.698 176.563 698.698C177.228 698.698 177.897 698.835 177.897 699.18C177.897 699.591 177.497 699.728 177.03 699.728C176.096 699.728 175.295 699.799 174.828 700.144C174.427 700.418 174.224 700.834 174.224 701.382C174.224 702.138 174.757 703.726 175.558 705.862L185.244 732.317H185.513C186.54 729.576 188.471 724.567 190.45 719.434C193.098 712.567 195.831 705.479 196.594 703.31C196.929 702.554 197.132 701.656 197.132 701.108C197.132 700.692 196.929 700.21 196.397 700.007C195.727 699.799 194.859 699.728 194.123 699.728C193.657 699.728 193.19 699.662 193.19 699.246C193.19 698.835 193.657 698.698 194.727 698.698C196.636 698.698 198.31 698.758 199.432 698.799C199.998 698.819 200.424 698.835 200.669 698.835C201.103 698.835 201.835 698.809 202.667 698.78C203.761 698.742 205.026 698.698 206.011 698.698C206.747 698.698 207.148 698.835 207.148 699.18C207.148 699.591 206.813 699.728 206.28 699.728C205.748 699.728 204.545 699.728 203.54 700.418C202.81 700.971 201.937 701.935 200.405 705.654C199.155 708.773 198.122 711.142 196.915 713.911C195.99 716.033 194.962 718.39 193.657 721.499C191.146 727.291 189.135 732.085 187.709 735.485C187.048 737.06 186.513 738.335 186.112 739.273C186.013 739.501 185.919 739.717 185.829 739.923C184.594 742.768 184.257 743.545 183.509 743.545ZM212.623 738.243C212.891 735.828 212.891 731.216 212.891 725.837V715.573C212.891 706.755 212.891 705.101 212.826 703.244C212.694 701.245 212.222 700.347 210.355 699.936C209.888 699.799 208.954 699.728 208.153 699.728C207.549 699.728 207.214 699.591 207.214 699.18C207.214 698.835 207.615 698.698 208.416 698.698C209.203 698.698 210.024 698.715 210.826 698.732C211.592 698.748 212.34 698.764 213.023 698.764C214.495 698.835 215.763 698.835 216.565 698.835H230.721C231.791 698.698 232.659 698.556 233.126 698.419C233.253 698.419 233.395 698.372 233.544 698.323C233.711 698.268 233.888 698.211 234.064 698.211C234.328 698.211 234.394 698.419 234.394 698.764C234.394 698.893 234.362 699.049 234.314 699.284C234.207 699.802 234.022 700.704 233.927 702.554C233.892 702.852 233.837 703.731 233.784 704.586C233.738 705.315 233.694 706.026 233.664 706.344C233.593 706.689 233.461 707.034 233.06 707.034C232.659 707.034 232.593 706.755 232.593 706.207C232.593 705.791 232.527 704.827 232.258 704.137C231.857 703.036 231.259 702.346 228.453 702.001C227.448 701.864 221.573 701.798 220.436 701.798C220.172 701.798 220.035 701.935 220.035 702.346V717.09C220.035 717.501 220.106 717.709 220.436 717.709C221.639 717.709 228.184 717.709 229.452 717.643C230.792 717.501 231.659 717.364 232.192 716.745C232.23 716.699 232.267 716.655 232.301 716.613C232.631 716.213 232.816 715.989 233.06 715.989C233.329 715.989 233.461 716.126 233.461 716.471C233.461 716.598 233.434 716.8 233.387 717.155C233.305 717.764 233.164 718.826 232.994 720.743C232.994 721.427 232.916 722.589 232.856 723.471C232.82 724.01 232.791 724.444 232.791 724.599C232.791 725.081 232.791 725.7 232.258 725.7C231.857 725.7 231.791 725.497 231.791 725.218C231.773 725.05 231.76 724.871 231.747 724.684C231.71 724.187 231.67 723.636 231.522 723.082C231.259 721.91 230.457 721.088 228.387 720.809C227.316 720.743 221.71 720.672 220.37 720.672C220.106 720.672 220.035 720.88 220.035 721.225V725.837C220.035 726.418 220.03 727.285 220.024 728.262C220.008 730.646 219.989 733.69 220.035 734.864C220.172 738.862 221.04 739.755 226.784 739.755C228.25 739.755 230.655 739.755 232.126 739.07C233.593 738.38 234.262 737.137 234.663 734.727C234.795 734.108 234.866 733.9 235.262 733.9C235.734 733.9 235.734 734.316 235.734 734.935C235.734 736.244 235.262 740.237 234.998 741.409C234.597 742.926 234.064 742.926 231.923 742.926C228.535 742.926 225.838 742.837 223.663 742.765C223.138 742.748 222.643 742.732 222.177 742.718C221.562 742.701 220.987 742.684 220.444 742.668C218.858 742.62 217.539 742.581 216.296 742.581C215.697 742.581 214.429 742.581 213.094 742.652C212.397 742.652 211.666 742.67 210.964 742.687C210.318 742.703 209.697 742.718 209.152 742.718C208.416 742.718 208.081 742.581 208.081 742.17C208.081 741.891 208.284 741.683 208.954 741.683C209.614 741.683 210.156 741.604 210.615 741.537C210.759 741.516 210.895 741.496 211.024 741.48C212.09 741.201 212.425 739.963 212.623 738.243ZM248.017 738.243C248.286 735.828 248.286 731.216 248.286 725.837V715.573C248.286 706.755 248.286 705.101 248.154 703.244C248.088 701.245 247.617 700.347 245.749 699.936C245.283 699.799 244.349 699.728 243.547 699.728C242.944 699.728 242.609 699.591 242.609 699.18C242.609 698.835 243.01 698.698 243.811 698.698C245.655 698.698 247.696 698.749 249.277 698.789C250.277 698.814 251.093 698.835 251.559 698.835C252.555 698.835 254.167 698.798 255.734 698.763C257.218 698.73 258.661 698.698 259.504 698.698C263.112 698.698 266.851 699.038 269.926 701.174C271.529 702.28 273.797 705.243 273.797 709.165C273.797 713.508 271.996 717.435 266.319 722.255C267.077 723.236 267.81 724.189 268.521 725.111C272.505 730.282 275.764 734.513 278.541 737.553C281.621 740.798 283.841 741.307 284.778 741.522C284.815 741.53 284.851 741.538 284.884 741.546L284.948 741.554C285.343 741.6 285.71 741.644 286.047 741.667C285.684 741.362 285.619 740.954 285.619 740.034C285.619 736.863 285.817 733.347 285.883 732.454C285.954 731.556 286.086 730.937 286.553 730.937C287.086 730.937 287.086 731.419 287.086 731.901C287.086 732.662 287.355 733.9 287.624 734.864C288.892 739.207 292.231 740.79 295.701 740.79C300.78 740.79 303.251 737.208 303.251 734.108C303.251 731.282 302.449 728.598 297.705 724.807L295.168 722.671C288.958 717.709 286.756 713.574 286.756 708.891C286.756 702.483 291.962 697.871 299.841 697.871C303.515 697.871 305.854 698.419 307.325 698.835C307.858 698.972 308.122 699.18 308.122 699.591C308.122 699.81 308.105 700.104 308.082 700.522C308.024 701.547 307.924 703.318 307.924 706.552C307.924 707.856 307.726 708.272 307.254 708.272C306.924 708.272 306.721 707.927 306.721 707.237C306.721 706.755 306.452 704.898 305.25 703.381C304.382 702.28 302.784 700.555 299.111 700.555C294.899 700.555 292.362 703.036 292.362 706.552C292.362 709.236 293.697 711.301 298.375 714.954L299.912 716.197C306.787 721.499 309.192 725.497 309.192 731.008C309.192 734.382 307.99 738.446 303.915 741.135C301.044 742.992 297.908 743.545 294.899 743.545C291.839 743.545 289.422 743.186 287.154 742.234C287.119 742.658 286.725 742.718 286.086 742.718H280.743C277.537 742.718 276.136 742.444 274.665 741.617C272.26 740.308 270.124 737.553 266.917 733.073C266.016 731.786 265.061 730.39 264.192 729.119C262.875 727.193 261.754 725.553 261.311 725.015C261.042 724.67 260.707 724.599 260.306 724.599L255.43 724.528C255.1 724.528 254.963 724.599 254.963 724.944V725.771C254.963 731.216 254.963 735.828 255.232 738.243C255.43 739.963 255.765 741.201 257.434 741.48C257.695 741.5 257.987 741.526 258.287 741.553C258.983 741.616 259.726 741.683 260.24 741.683C260.641 741.683 260.91 741.891 260.91 742.17C260.91 742.581 260.509 742.718 259.773 742.718C257.613 742.718 255.046 742.658 253.301 742.618C252.402 742.597 251.722 742.581 251.427 742.581C250.991 742.581 250.147 742.604 249.146 742.631C247.687 742.67 245.895 742.718 244.547 742.718C243.811 742.718 243.41 742.581 243.41 742.17C243.41 741.891 243.679 741.683 244.349 741.683C245.051 741.683 245.62 741.593 246.059 741.524C246.163 741.508 246.259 741.493 246.348 741.48C247.485 741.201 247.754 739.963 248.017 738.243ZM255.43 701.656C255.1 701.798 254.963 702.001 254.963 702.483V720.19C254.963 720.809 255.1 721.088 255.43 721.225C256.633 721.636 258.373 721.844 259.773 721.844C262.046 721.844 262.777 721.57 263.782 720.809C265.451 719.571 267.12 716.882 267.12 712.062C267.12 703.792 261.778 701.453 258.439 701.453C257.034 701.453 256.034 701.453 255.43 701.656ZM322.349 725.839V725.837V715.573V715.567C322.349 706.754 322.349 705.1 322.217 703.244C322.08 701.245 321.547 700.281 320.279 699.936C319.68 699.799 318.944 699.728 318.274 699.728C317.676 699.728 317.341 699.591 317.341 699.18C317.341 698.835 317.808 698.698 318.741 698.698C319.878 698.698 321.409 698.736 322.844 698.773C324.112 698.805 325.305 698.835 326.088 698.835C326.717 698.835 327.735 698.807 328.858 698.777C330.243 698.739 331.789 698.698 332.968 698.698C333.704 698.698 334.171 698.835 334.171 699.18C334.171 699.591 333.77 699.728 333.237 699.728C332.699 699.728 332.232 699.799 331.563 699.936C330.03 700.21 329.564 701.174 329.427 703.244C329.361 705.101 329.361 706.755 329.361 715.573V725.837C329.361 731.49 329.361 736.107 329.564 738.583C329.761 740.171 330.096 741.201 331.832 741.48C332.026 741.496 332.244 741.516 332.475 741.538C333.197 741.604 334.046 741.683 334.703 741.683C335.307 741.683 335.637 741.891 335.637 742.17C335.637 742.581 335.17 742.718 334.505 742.718C332.256 742.718 330.031 742.667 328.306 742.627C327.215 742.602 326.323 742.581 325.753 742.581C325.174 742.581 324.181 742.607 323.056 742.636C321.588 742.674 319.896 742.718 318.609 742.718C317.874 742.718 317.473 742.581 317.473 742.17C317.473 741.891 317.676 741.683 318.411 741.683C319.012 741.683 319.54 741.605 319.992 741.538C320.14 741.517 320.279 741.496 320.41 741.48C321.547 741.201 321.882 740.237 322.08 738.517C322.349 736.107 322.349 731.491 322.349 725.839ZM347.261 738.243C347.525 735.828 347.525 731.216 347.525 725.837V715.573C347.525 706.755 347.525 705.101 347.459 703.244C347.327 701.245 346.86 700.347 344.988 699.936C344.587 699.799 343.588 699.728 342.786 699.728C342.182 699.728 341.847 699.591 341.847 699.18C341.847 698.835 342.248 698.698 343.121 698.698C344.825 698.698 346.754 698.744 348.373 698.782C349.544 698.81 350.553 698.835 351.198 698.835C351.959 698.835 353.028 698.81 354.264 698.782C355.962 698.743 357.976 698.698 359.945 698.698C366.958 698.698 376.44 698.698 382.585 705.309C385.391 708.343 388.064 713.163 388.064 720.119C388.064 727.491 385.056 733.073 381.92 736.381C379.317 739.136 373.437 743.271 362.954 743.271C361.422 743.271 359.693 743.149 358.009 743.031C357.491 742.994 356.978 742.958 356.475 742.926C354.339 742.718 352.335 742.581 350.934 742.581C350.331 742.581 349.062 742.581 347.728 742.652C347.021 742.652 346.278 742.67 345.577 742.688C344.95 742.703 344.357 742.718 343.851 742.718C343.121 742.718 342.72 742.581 342.72 742.17C342.72 741.891 342.918 741.683 343.588 741.683C344.247 741.683 344.79 741.604 345.248 741.537C345.393 741.516 345.529 741.496 345.658 741.48C346.723 741.201 347.058 739.963 347.261 738.243ZM354.674 702.965C354.603 704.964 354.603 710.063 354.603 714.68V721.981C354.603 728.182 354.674 732.662 354.74 733.763C354.745 733.873 354.75 733.988 354.755 734.107C354.818 735.555 354.907 737.6 355.339 738.172C356.074 739.273 358.276 740.516 362.751 740.516C368.495 740.516 372.371 739.344 375.71 736.31C379.383 733.144 380.449 727.836 380.449 721.844C380.449 714.401 377.511 709.652 375.04 707.237C369.829 702.138 363.421 701.453 359.012 701.453C357.875 701.453 355.805 701.59 355.339 701.864C354.806 702.072 354.674 702.346 354.674 702.965ZM415.509 728.318C415.377 727.973 415.245 727.908 414.976 727.908H402.352C402.089 727.908 401.957 727.973 401.82 728.318L398.816 736.31C398.212 737.761 397.948 739.207 397.948 739.892C397.948 740.927 398.481 741.683 400.216 741.683H401.084C401.754 741.683 401.886 741.825 401.886 742.17C401.886 742.652 401.556 742.718 400.952 742.718C400.052 742.718 399.001 742.684 397.95 742.65C396.897 742.615 395.843 742.581 394.94 742.581C394.753 742.581 394.321 742.594 393.726 742.612C392.407 742.653 390.286 742.718 388.262 742.718C387.527 742.718 387.197 742.652 387.197 742.17C387.197 741.825 387.461 741.683 387.928 741.683C388.399 741.683 389.201 741.617 389.668 741.546C392.271 741.201 393.341 739.273 394.473 736.31L408.634 700.21C409.298 698.49 409.633 697.871 410.237 697.871C410.704 697.871 411.039 698.419 411.637 699.728C412.111 700.875 413.549 704.543 415.373 709.192C418.693 717.658 423.29 729.38 425.661 735.072C427.797 740.374 429.401 741.135 430.603 741.48C431.471 741.617 432.273 741.683 433.008 741.683C433.409 741.683 433.744 741.754 433.744 742.17C433.744 742.652 433.206 742.718 431.136 742.718C429.066 742.718 424.926 742.718 420.451 742.652C420.346 742.645 420.244 742.638 420.145 742.631C419.305 742.576 418.715 742.538 418.715 742.17C418.715 741.825 418.984 741.683 419.517 741.617C419.918 741.546 420.319 740.998 420.05 740.308L415.509 728.318ZM403.291 724.528C403.225 724.807 403.291 724.944 403.489 724.944H413.91C414.174 724.944 414.24 724.807 414.174 724.599L409.101 710.271C409.093 710.247 409.085 710.222 409.078 710.197C409.018 710.004 408.953 709.789 408.832 709.789C408.634 709.789 408.497 710.063 408.431 710.271L403.291 724.528ZM439.021 738.243C439.35 735.828 439.35 731.216 439.35 725.837V715.573C439.35 706.755 439.35 705.101 439.219 703.244C439.087 701.245 438.62 700.347 436.814 699.936C436.347 699.799 435.347 699.728 434.612 699.728C433.942 699.728 433.607 699.591 433.607 699.18C433.607 698.835 434.008 698.698 434.88 698.698C436.616 698.698 438.53 698.743 440.145 698.782C441.326 698.81 442.347 698.835 443.024 698.835C443.749 698.835 444.787 698.811 445.997 698.783C447.69 698.744 449.72 698.698 451.705 698.698C458.788 698.698 468.2 698.698 474.345 705.309C477.15 708.343 479.824 713.163 479.824 720.119C479.824 727.491 476.815 733.073 473.68 736.381C471.072 739.136 465.196 743.271 454.714 743.271C453.181 743.271 451.453 743.149 449.769 743.031C449.251 742.994 448.737 742.958 448.235 742.926C446.099 742.718 444.095 742.581 442.694 742.581C442.09 742.581 440.822 742.581 439.488 742.652C438.836 742.652 438.131 742.669 437.445 742.686C436.796 742.702 436.164 742.718 435.611 742.718C434.88 742.718 434.48 742.581 434.48 742.17C434.48 741.891 434.678 741.683 435.347 741.683C436.007 741.683 436.549 741.604 437.008 741.537C437.152 741.516 437.289 741.496 437.417 741.48C438.549 741.201 438.818 739.963 439.021 738.243ZM446.434 702.965C446.363 704.964 446.363 710.063 446.363 714.68V721.981C446.363 728.182 446.434 732.662 446.5 733.763C446.566 735.209 446.697 737.553 447.098 738.172C447.834 739.273 450.036 740.516 454.511 740.516C460.255 740.516 464.131 739.344 467.536 736.31C471.143 733.144 472.274 727.836 472.274 721.844C472.274 714.401 469.271 709.652 466.8 707.237C461.66 702.138 455.181 701.453 450.772 701.453C449.635 701.453 447.565 701.59 447.098 701.864C446.631 702.072 446.434 702.346 446.434 702.965ZM507.405 738.243C507.669 735.828 507.669 731.216 507.669 725.837V715.573C507.669 706.755 507.669 705.101 507.603 703.244C507.471 701.245 507.005 700.347 505.132 699.936C504.732 699.799 503.732 699.728 502.93 699.728C502.327 699.728 501.997 699.591 501.997 699.18C501.997 698.835 502.398 698.698 503.265 698.698C504.971 698.698 506.903 698.744 508.523 698.783C509.693 698.811 510.7 698.835 511.343 698.835C512.104 698.835 513.172 698.81 514.408 698.782C516.106 698.744 518.122 698.698 520.095 698.698C527.107 698.698 536.59 698.698 542.734 705.309C545.535 708.343 548.209 713.163 548.209 720.119C548.209 727.491 545.205 733.073 542.065 736.381C539.462 739.136 533.581 743.271 523.099 743.271C521.566 743.271 519.838 743.149 518.154 743.031C517.636 742.994 517.122 742.958 516.619 742.926C514.483 742.718 512.479 742.581 511.079 742.581C510.475 742.581 509.207 742.581 507.872 742.652C507.168 742.652 506.426 742.67 505.725 742.688C505.097 742.703 504.502 742.718 503.996 742.718C503.265 742.718 502.864 742.581 502.864 742.17C502.864 741.891 503.062 741.683 503.732 741.683C504.396 741.683 504.944 741.603 505.403 741.536C505.544 741.515 505.677 741.495 505.802 741.48C506.868 741.201 507.203 739.963 507.405 738.243ZM514.818 702.965C514.752 704.964 514.752 710.063 514.752 714.68V721.981C514.752 728.182 514.818 732.662 514.884 733.763C514.889 733.873 514.894 733.988 514.899 734.107C514.963 735.555 515.052 737.6 515.483 738.172C516.219 739.273 518.426 740.516 522.896 740.516C528.639 740.516 532.516 739.344 535.854 736.31C539.528 733.144 540.593 727.836 540.593 721.844C540.593 714.401 537.655 709.652 535.185 707.237C529.979 702.138 523.566 701.453 519.156 701.453C518.025 701.453 515.955 701.59 515.483 701.864C514.95 702.072 514.818 702.346 514.818 702.965ZM559.427 738.243C559.696 735.828 559.696 731.216 559.696 725.837V715.573C559.696 706.755 559.696 705.101 559.559 703.244C559.427 701.245 559.026 700.347 557.159 699.936C556.692 699.799 555.754 699.728 554.952 699.728C554.287 699.728 553.953 699.591 553.953 699.18C553.953 698.835 554.353 698.698 555.221 698.698C556.008 698.698 556.812 698.715 557.597 698.732C558.346 698.748 559.078 698.764 559.762 698.764C561.233 698.835 562.568 698.835 563.37 698.835H577.459C578.53 698.698 579.464 698.556 579.93 698.419C580.065 698.419 580.214 698.367 580.364 698.315C580.514 698.263 580.664 698.211 580.798 698.211C581.067 698.211 581.133 698.419 581.133 698.764C581.133 698.904 581.102 699.076 581.054 699.346C580.959 699.873 580.797 700.775 580.666 702.554C580.666 703.107 580.529 705.654 580.397 706.344C580.331 706.689 580.265 707.034 579.864 707.034C579.464 707.034 579.332 706.755 579.332 706.207C579.332 705.791 579.261 704.827 578.997 704.137C578.596 703.036 578.058 702.346 575.186 702.001C574.253 701.864 568.311 701.798 567.175 701.798C566.906 701.798 566.774 701.935 566.774 702.346V717.09C566.774 717.501 566.84 717.709 567.175 717.709C568.443 717.709 574.923 717.709 576.257 717.643C577.591 717.501 578.459 717.364 578.931 716.745C579.332 716.263 579.596 715.989 579.864 715.989C580.062 715.989 580.265 716.126 580.265 716.471C580.265 716.576 580.24 716.732 580.2 716.984C580.108 717.559 579.936 718.633 579.798 720.743C579.732 721.844 579.596 724.188 579.596 724.599C579.596 725.081 579.596 725.7 579.063 725.7C578.662 725.7 578.53 725.497 578.53 725.218C578.503 724.984 578.486 724.73 578.469 724.464C578.44 724.027 578.409 723.555 578.327 723.082C578.058 721.91 577.262 721.088 575.186 720.809C574.055 720.743 568.509 720.672 567.109 720.672C566.84 720.672 566.774 720.88 566.774 721.225V734.864C566.906 738.862 567.845 739.755 573.588 739.755C575.054 739.755 577.393 739.755 578.86 739.07C580.331 738.38 581.067 737.137 581.402 734.727C581.534 734.108 581.666 733.9 582.066 733.9C582.467 733.9 582.467 734.316 582.467 734.935C582.467 736.244 582.066 740.237 581.803 741.409C581.402 742.926 580.864 742.926 578.728 742.926C575.304 742.926 572.649 742.838 570.492 742.766C569.957 742.749 569.453 742.732 568.976 742.718C568.282 742.699 567.646 742.681 567.054 742.663C565.536 742.618 564.301 742.581 563.101 742.581C562.431 742.581 561.233 742.581 559.828 742.652C559.176 742.652 558.47 742.669 557.784 742.686C557.136 742.702 556.506 742.718 555.957 742.718C555.221 742.718 554.82 742.581 554.82 742.17C554.82 741.891 555.018 741.683 555.754 741.683C556.359 741.683 556.888 741.605 557.341 741.538C557.488 741.517 557.627 741.496 557.758 741.48C558.894 741.201 559.163 739.963 559.427 738.243ZM605.639 741.546C607.177 741.135 607.643 738.862 607.912 736.934L613.524 699.383C613.722 698.419 614.057 697.871 614.524 697.871C614.924 697.871 615.259 698.145 615.995 699.662L631.419 732.038L646.778 699.246C647.25 698.353 647.513 697.871 648.051 697.871C648.584 697.871 648.919 698.419 649.051 699.662L654.191 735.346C654.728 738.999 655.261 740.719 656.996 741.201C658.6 741.754 659.736 741.825 660.472 741.825C661.005 741.825 661.406 741.891 661.406 742.236C661.406 742.652 660.67 742.855 659.934 742.855C658.468 742.855 650.72 742.718 648.452 742.581C647.113 742.444 646.778 742.236 646.778 741.891C646.778 741.619 647.042 741.482 647.436 741.278L647.448 741.272C647.782 741.135 647.914 740.374 647.716 738.791L644.307 713.437H644.109L631.754 739.41C630.486 742.17 630.217 742.652 629.684 742.652C629.186 742.652 628.684 741.685 627.858 740.096C627.8 739.986 627.741 739.872 627.68 739.755C627.449 739.29 627.123 738.638 626.739 737.87C624.909 734.207 621.754 727.895 621.201 726.527C620.962 725.894 619.954 723.8 618.758 721.315C617.617 718.943 616.304 716.214 615.325 714.061H615.127L612.185 736.792C612.053 737.827 611.987 738.583 611.987 739.552C611.987 740.653 612.722 741.135 613.722 741.409C614.727 741.617 615.523 741.683 616.061 741.683C616.528 741.683 616.929 741.825 616.929 742.099C616.929 742.652 616.396 742.718 615.594 742.718C614.133 742.718 612.624 742.667 611.439 742.628C610.673 742.602 610.042 742.581 609.648 742.581C609.185 742.581 608.405 742.607 607.523 742.636C606.377 742.674 605.059 742.718 604.041 742.718C603.503 742.718 603.036 742.652 603.036 742.099C603.036 741.825 603.371 741.683 603.904 741.683C604.371 741.683 604.772 741.683 605.639 741.546ZM709.754 719.637C709.754 733.007 700.743 743.545 686.384 743.545C670.153 743.545 663.608 731.008 663.608 720.743C663.608 710.753 669.955 697.871 686.917 697.871C701.007 697.871 709.754 706.344 709.754 719.637ZM671.421 718.881C671.421 731.008 677.901 740.653 688.718 740.653C692.66 740.653 701.808 738.654 701.808 721.844C701.808 708.754 694.527 700.692 685.313 700.692C678.768 700.692 671.421 704.416 671.421 718.881ZM723.981 710.545H723.783L724.448 734.798C724.513 739.344 725.249 740.861 726.386 741.272C727.385 741.617 728.456 741.683 729.323 741.683C729.922 741.683 730.323 741.825 730.323 742.17C730.323 742.652 729.79 742.718 728.989 742.718C726.603 742.718 724.81 742.66 723.553 742.62C722.874 742.598 722.352 742.581 721.977 742.581C721.818 742.581 721.474 742.593 720.992 742.61C719.86 742.651 717.963 742.718 715.898 742.718C715.168 742.718 714.63 742.652 714.63 742.17C714.63 741.825 714.965 741.683 715.568 741.683C716.299 741.683 717.304 741.617 718.105 741.409C719.572 740.927 719.775 739.273 719.841 734.174L720.373 699.865C720.373 698.698 720.51 697.871 721.109 697.871C721.557 697.871 721.93 698.287 722.5 698.924C722.699 699.146 722.921 699.395 723.179 699.662C723.849 700.418 732.464 709.789 740.679 718.191C743.274 720.871 747.551 725.5 750.37 728.552C751.757 730.053 752.792 731.172 753.099 731.49H753.363L752.83 705.309C752.764 701.798 752.232 700.692 750.892 700.073C750.025 699.728 748.69 699.728 747.889 699.728C747.224 699.728 747.021 699.591 747.021 699.18C747.021 698.764 747.625 698.698 748.492 698.698C750.284 698.698 751.975 698.749 753.295 698.788C754.14 698.814 754.832 698.835 755.301 698.835C755.493 698.835 755.838 698.821 756.31 698.802C757.326 698.762 758.93 698.698 760.847 698.698C761.578 698.698 762.115 698.764 762.115 699.18C762.115 699.591 761.781 699.728 761.111 699.728C760.578 699.728 760.111 699.728 759.442 699.936C757.838 700.347 757.372 701.59 757.306 704.898L756.707 741.617C756.707 742.926 756.504 743.408 755.971 743.408C755.372 743.408 754.714 742.799 754.049 742.185L754.033 742.17C752.117 740.268 749.129 737.158 745.859 733.755C743.083 730.866 740.104 727.767 737.406 725.015C732.087 719.587 726.666 713.539 724.657 711.297C724.345 710.949 724.115 710.693 723.981 710.545Z" fill="#2C2C2C"></path><path fill-rule="evenodd" clip-rule="evenodd" d="M660.674 634.763C671.425 632.419 674.363 616.847 676.367 603.346L714.365 345.82C715.37 339.001 717.775 335.484 720.844 335.484C723.919 335.484 726.319 337.412 731.195 347.819L835.913 570.346L940.291 344.993C943.229 338.584 945.233 335.484 948.709 335.484C952.179 335.484 954.452 339.412 955.589 347.819L990.512 592.599C994.119 617.674 997.859 629.181 1009.35 632.764C1020.43 636.275 1028.11 636.762 1033.12 636.762C1036.53 636.762 1039.27 637.173 1039.27 639.517C1039.27 642.754 1034.66 643.855 1029.25 643.926C1027.5 643.949 1023.5 643.776 1018.02 643.541C1007.56 643.091 991.709 642.409 975.889 642.409C965.016 642.374 954.141 642.747 945.007 643.061C935.35 643.392 927.639 643.657 923.933 643.302C915.115 642.475 912.446 641.029 912.446 638.619C912.446 636.871 916.045 636.842 920.932 636.802C932.037 636.712 949.794 636.568 947.105 616.091L924.065 440.964H922.528L838.247 620.429C829.434 639.172 827.496 642.754 824.025 642.754C820.838 642.754 817.238 635.753 811.752 625.083C811.377 624.353 810.993 623.607 810.6 622.844C801.452 604.518 771.131 543.683 766.524 532.52C764.985 528.824 759.35 517.003 752.384 502.388C743.637 484.039 732.792 461.287 725.319 444.683H723.782L705.151 602.59C704.283 609.683 704.014 614.919 704.014 621.256C704.014 628.836 708.956 632.419 715.501 634.002C722.382 635.59 727.79 636.001 731.596 636.001C734.67 636.001 737.339 636.762 737.339 638.756C737.339 642.338 733.935 643.099 728.125 643.099C718.412 643.099 708.285 642.672 700.255 642.334C694.979 642.111 690.608 641.927 687.854 641.927C684.688 641.927 679.425 642.149 673.477 642.399C665.749 642.725 656.866 643.099 649.923 643.099C646.046 643.099 642.977 642.338 642.977 638.756C642.977 636.762 645.316 636.001 649.121 636.001C652.191 636.001 654.93 636.001 660.674 634.763ZM440.888 621.261C421.323 602.934 406.695 573.516 406.695 515.853V457.773C406.695 397.288 406.695 386.192 405.96 373.446C405.158 359.879 402.088 353.537 389.465 350.782C386.395 349.955 379.85 349.544 374.507 349.544C370.301 349.544 367.962 348.783 367.962 345.962C367.962 343.206 370.697 342.379 376.44 342.379C388.03 342.379 400.881 342.783 411.913 343.129C420.209 343.389 427.476 343.617 432.404 343.617C436.549 343.617 443.716 343.367 451.607 343.092C461.268 342.754 472.013 342.379 479.621 342.379C485.365 342.379 488.039 343.206 488.039 345.962C488.039 348.783 485.765 349.544 481.894 349.544C477.704 349.544 475.438 349.95 470.877 350.769L470.808 350.782C460.457 352.781 457.383 359.534 456.581 373.446C455.845 386.192 455.845 397.288 455.845 457.773V513.443C455.845 571.106 466.932 595.425 485.765 611.342C502.996 626.015 520.628 627.598 533.718 627.598C550.548 627.598 571.249 622.017 586.607 606.106C607.709 584.263 608.846 548.442 608.846 507.516V457.773C608.846 397.288 608.846 386.192 608.11 373.446C607.308 359.879 604.239 353.537 591.615 350.782C588.546 349.955 582 349.544 577.794 349.544C573.588 349.544 571.249 348.783 571.249 345.962C571.249 343.206 573.989 342.379 579.331 342.379C596.446 342.379 617.091 343.327 622.26 343.564C623 343.598 623.423 343.617 623.474 343.617C625.118 343.617 629.247 343.46 634.557 343.257C644.125 342.891 657.53 342.379 667.149 342.379C672.558 342.379 675.231 343.206 675.231 345.962C675.231 348.783 672.958 349.544 668.351 349.544C664.095 349.544 661.829 349.951 657.268 350.769L657.199 350.782C646.849 352.781 643.774 359.534 643.038 373.446C642.237 386.192 642.237 397.288 642.237 457.773V500.352C642.237 544.515 638.03 591.427 605.776 620.089C578.596 644.342 550.949 648.68 526.036 648.68C505.665 648.68 468.87 647.508 440.888 621.261Z" fill="#2C2C2C"></path><path d="M41.1172 342.379V500.814C41.1172 583.989 107.863 651.404 190.251 651.404C272.584 651.404 339.36 583.989 339.36 500.814V342.379H41.1172Z" fill="#2C2C2C"></path><path d="M74.5654 457.677C74.5654 413.282 109.534 377.171 152.575 377.171C164.443 377.171 175.646 380.19 185.748 385.147C178.233 389.825 171.566 395.665 165.813 402.54C161.581 401.384 157.167 400.658 152.575 400.658C122.077 400.658 97.3011 426.25 97.3011 457.677C97.3011 489.044 122.077 514.636 152.575 514.636C157.167 514.636 161.581 513.85 165.813 512.779C171.566 519.629 178.233 525.469 185.748 530.147C175.646 535.104 164.443 538.092 152.575 538.092C109.534 538.092 74.5654 502.012 74.5654 457.677Z" fill="white"></path><path d="M213.11 507.695C205.59 505.31 198.801 501.322 193.205 495.888C202.181 485.745 207.782 472.437 207.782 457.677C207.782 442.856 202.181 429.512 193.205 419.37C198.801 413.941 205.59 409.953 213.11 407.599C223.851 421.415 230.548 438.62 230.548 457.677C230.548 476.643 223.851 493.914 213.11 507.695Z" fill="white"></path><path d="M227.9 514.631C231.279 514.631 234.506 514.194 237.733 513.565C239.651 519.212 240.929 525.149 240.929 531.43C240.929 533.312 240.594 535.007 240.442 536.798C236.363 537.519 232.162 538.087 227.9 538.087C196.615 538.087 169.83 518.903 157.379 491.428C163.133 486.436 169.921 482.732 177.502 480.687C186.112 500.627 205.408 514.631 227.9 514.631Z" fill="white"></path><path d="M203.191 451.994C203.464 454.064 203.769 456.109 203.769 458.179C203.769 464.242 202.612 469.955 200.786 475.323C197.011 474.507 193.053 473.974 189.035 473.974C166.39 473.974 146.851 488.165 138.393 508.354C130.965 506.096 124.207 502.169 118.666 496.923C131.117 469.641 157.871 450.518 189.035 450.518C193.905 450.518 198.594 451.116 203.191 451.994Z" fill="white"></path><path d="M189.034 611.398C146.028 611.398 111.055 575.354 111.055 530.988V530.958C118.361 535.413 126.246 538.898 134.765 540.908C139.361 567.601 161.884 587.911 189.034 587.911C219.502 587.911 244.278 562.385 244.278 530.988C244.278 515.605 238.28 501.565 228.599 491.331C231.857 483.421 233.592 474.725 234.384 465.805C254.075 480.438 267.044 504.082 267.044 530.988C267.044 575.354 232.04 611.398 189.034 611.398Z" fill="white"></path><path d="M271.58 524.24C270.85 515.356 269.145 506.69 265.888 498.775C276.451 488.414 283.144 473.847 283.144 457.677C283.144 426.245 258.368 400.658 227.905 400.658C200.542 400.658 177.959 421.379 173.575 448.29C165.081 450.112 157.263 453.532 149.926 457.804V457.677C149.926 413.281 184.9 377.171 227.905 377.171C270.911 377.171 305.879 413.281 305.879 457.677C305.879 485.339 292.307 509.765 271.58 524.24Z" fill="white"></path></svg> 